<svg width="100" height="100" viewBox="0 0 100 100" fill="none" xmlns="http://www.w3.org/2000/svg">
<path d="M100 50C100 77.6142 77.6142 100 50 100C22.3858 100 0 77.6142 0 50C0 22.3858 22.3858 0 50 0C77.6142 0 100 22.3858 100 50ZM4 50C4 75.4051 24.5949 96 50 96C75.4051 96 96 75.4051 96 50C96 24.5949 75.4051 4 50 4C24.5949 4 4 24.5949 4 50Z" fill="black"/>
<path d="M48.7198 73C45.4231 73 42.424 72.2674 39.7225 70.8022C37.0668 69.2912 34.9377 67.1163 33.3352 64.2775C31.7784 61.3928 31 57.8901 31 53.7692V42.2308C31 36.0494 32.7399 31.3104 36.2198 28.0137C39.6996 24.6712 44.4157 23 50.3681 23C56.2747 23 60.8306 24.5797 64.0357 27.739C67.2866 30.8526 68.9121 35.0879 68.9121 40.4451V40.7198H59.9835V40.1703C59.9835 38.4762 59.6172 36.9423 58.8846 35.5687C58.1978 34.1951 57.1447 33.119 55.7253 32.3407C54.3059 31.5165 52.5201 31.1044 50.3681 31.1044C47.163 31.1044 44.6447 32.0888 42.8132 34.0577C40.9817 36.0266 40.0659 38.7051 40.0659 42.0934V53.9066C40.0659 57.2491 40.9817 59.9505 42.8132 62.011C44.6447 64.0256 47.2088 65.033 50.5055 65.033C53.8022 65.033 56.206 64.163 57.717 62.4231C59.228 60.6831 59.9835 58.4853 59.9835 55.8297V55.1429H48.5824V47.4506H68.9121V72.0385H60.533V67.4368H59.2967C58.9762 68.2152 58.4496 69.0394 57.717 69.9093C57.0302 70.7793 55.9771 71.5119 54.5577 72.1071C53.1383 72.7024 51.1923 73 48.7198 73Z" fill="black"/>
<path d="M61.9066 69.7491H63.0513V70.8938H61.9066V69.7491Z" fill="black"/>
</svg>
