<svg width="100" height="100" viewBox="0 0 100 100" fill="none" xmlns="http://www.w3.org/2000/svg">
<path d="M47.4396 100C40.8462 100 34.848 98.5348 29.4451 95.6044C24.1337 92.5824 19.8755 88.2326 16.6703 82.5549C13.5568 76.7857 12 69.7802 12 61.5385V38.4615C12 26.0989 15.4799 16.6209 22.4396 10.0275C29.3993 3.34249 38.8315 0 50.7363 0C62.5494 0 71.6612 3.15934 78.0714 9.47802C84.5733 15.7051 87.8242 24.1758 87.8242 34.8901V35.4396H69.967V34.3407C69.967 30.9524 69.2344 27.8846 67.7692 25.1374C66.3956 22.3901 64.2894 20.2381 61.4506 18.6813C58.6117 17.033 55.0403 16.2088 50.7363 16.2088C44.326 16.2088 39.2894 18.1777 35.6264 22.1154C31.9634 26.0531 30.1319 31.4103 30.1319 38.1868V61.8132C30.1319 68.4982 31.9634 73.9011 35.6264 78.022C39.2894 82.0513 44.4176 84.0659 51.011 84.0659C57.6044 84.0659 62.4121 82.326 65.4341 78.8461C68.456 75.3663 69.967 70.9707 69.967 65.6593V64.2857H47.1648V48.9011H87.8242V98.0769H71.0659V88.8736H68.5934C67.9524 90.4304 66.8993 92.0787 65.4341 93.8187C64.0604 95.5586 61.9542 97.0238 59.1154 98.2143C56.2766 99.4048 52.3846 100 47.4396 100Z" fill="white"/>
<path d="M73.8132 93.4982H76.1026V95.7875H73.8132V93.4982Z" fill="white"/>
</svg>
