<svg width="202" height="100" viewBox="0 0 202 100" fill="none" xmlns="http://www.w3.org/2000/svg">
<path d="M35.4396 100C28.8462 100 22.848 98.5348 17.4451 95.6044C12.1337 92.5824 7.87546 88.2326 4.67033 82.5549C1.55678 76.7857 0 69.7802 0 61.5385V38.4615C0 26.0989 3.47985 16.6209 10.4396 10.0275C17.3993 3.34249 26.8315 0 38.7363 0C50.5494 0 59.6612 3.15934 66.0714 9.47802C72.5733 15.7051 75.8242 24.1758 75.8242 34.8901V35.4396H57.967V34.3407C57.967 30.9524 57.2344 27.8846 55.7692 25.1374C54.3956 22.3901 52.2894 20.2381 49.4505 18.6813C46.6117 17.033 43.0403 16.2088 38.7363 16.2088C32.326 16.2088 27.2894 18.1777 23.6264 22.1154C19.9634 26.0531 18.1319 31.4103 18.1319 38.1868V61.8132C18.1319 68.4982 19.9634 73.9011 23.6264 78.022C27.2894 82.0513 32.4176 84.0659 39.011 84.0659C45.6044 84.0659 50.4121 82.326 53.4341 78.8462C56.456 75.3663 57.967 70.9707 57.967 65.6593V64.2857H35.1648V48.9011H75.8242V98.0769H59.0659V88.8736H56.5934C55.9524 90.4304 54.8993 92.0788 53.4341 93.8187C52.0604 95.5586 49.9542 97.0238 47.1154 98.2143C44.2766 99.4048 40.3846 100 35.4396 100Z" fill="black"/>
<path d="M98.6414 98.0769V1.92308H132.295L148.916 85.7143H151.389L168.01 1.92308H201.663V98.0769H184.081V15.2473H181.608L165.125 98.0769H135.18L118.696 15.2473H116.224V98.0769H98.6414Z" fill="black"/>
<path d="M99.9695 82.8144H107.601V90.4457H99.9695V82.8144Z" fill="black"/>
</svg>
